<svg id="Layer_1" data-name="Layer 1" xmlns="http://www.w3.org/2000/svg" viewBox="0 0 890.2 1200"><defs><style>.cls-1{fill:#fef1e2;}.cls-2{fill:#010101;}</style></defs><title>02_SVG-14</title><path class="cls-1" d="M180.72,942.73l6.15-24.62V751.92l-6.15-24.62h58.47L233,751.92V918.11l6.16,24.62Z"/><path class="cls-1" d="M355.24,942.73h-80l-18.47-18.46-7.69-15.39v-9.23L286,881.18V892l10.77,10.77h30.78l12.31-6.15L346,884.26v-20l-10.77-10.77-46.17-10.77-29.24-29.24V767.31l40-40h76.94l15.39,46.17-27.7-9.24H327.54l-12.31,6.16-6.15,12.31V795l10.77,10.77L366,816.55l29.24,29.24v56.93Z"/><path class="cls-1" d="M550.69,924.27l-18.47,18.46H459.9l-43.08-43.08V770.39L459.9,727.3h76.94l16.93,50.78-31.7-10.77H489.14L473.75,775l-7.69,15.39v89.25L473.75,895l15.39,7.69h21.55L521.46,892V878.1l36.93,18.47v12.31Z"/><path class="cls-1" d="M850.19,942.73h-80l-18.46-18.46L744,908.88v-9.23l36.92-18.47V892l10.78,10.77h30.77l12.31-6.15L841,884.26v-20l-10.77-10.77L784,842.71l-29.23-29.24V767.31l40-40h76.94l15.39,46.17-27.7-9.24H822.49l-12.31,6.16L804,782.7V795l10.77,10.77L861,816.55l29.24,29.24v56.93Z"/><polygon class="cls-1" points="36.52 943.02 117.4 943.02 157.09 903.05 157.09 751.92 163.24 727.3 104.77 727.3 110.92 751.92 111.69 884.52 106.36 896.76 91.96 905.4 68.91 905.4 53.91 897.26 45.87 882.36 45.15 871.23 94.81 821.21 94.81 767.92 51.41 811.63 25.54 812.55 0 838.1 0 905.5 36.52 943.02"/><polygon class="cls-1" points="686.43 1199.41 767.31 1199.41 807 1159.44 807 1008.31 813.15 983.69 754.68 983.69 760.83 1008.31 761.6 1140.91 756.27 1153.15 741.87 1161.79 718.82 1161.79 703.82 1153.64 695.78 1138.74 695.06 1127.61 744.72 1077.6 744.72 1024.31 701.32 1068.01 675.45 1068.94 649.91 1094.48 649.91 1161.88 686.43 1199.41"/><polygon class="cls-1" points="637.78 902.73 625.47 896.57 619.31 884.26 619.31 782.7 625.47 770.39 637.78 764.23 642.1 764.23 642.1 727.3 610.08 727.3 570.08 767.31 570.08 902.73 610.08 942.73 642.1 942.73 642.1 902.73 637.78 902.73"/><polygon class="cls-1" points="690.1 727.3 658.09 727.3 658.09 764.23 662.4 764.23 674.71 770.39 680.87 782.7 680.87 884.26 674.71 896.57 662.4 902.73 658.09 902.73 658.09 942.73 690.1 942.73 730.11 902.73 730.11 767.31 690.1 727.3"/><path class="cls-1" d="M181.75,1192h-80l-18.47-18.47-7.69-15.39v-9.23l36.93-18.46v10.77L123.28,1152h30.77l12.31-6.16,6.16-12.31v-20l-10.77-10.77L115.59,1092l-29.24-29.24v-46.17l40-40h76.94l15.39,46.16-27.7-9.23H154.05l-12.31,6.15L135.59,1032v12.31l10.77,10.77,46.16,10.77,29.24,29.24V1152Z"/><path class="cls-1" d="M548.66,1196h-120l6.16-24.62V1005.19l-6.16-24.62h60l-7.7,30.78v140l4.62,4.62h47.7l32.32-10.78Z"/><path class="cls-1" d="M570.53,1200l6.15-24.62V1009.19l-6.15-24.62H629l-6.15,24.62v166.19L629,1200Z"/><polygon class="cls-1" points="311.64 1154.76 299.33 1148.61 293.18 1136.3 293.18 1034.74 299.33 1022.43 311.64 1016.27 317.91 1016.27 317.91 979.34 283.94 979.34 243.94 1019.35 243.94 1154.76 283.94 1194.77 317.91 1194.77 317.91 1154.76 311.64 1154.76"/><polygon class="cls-1" points="363.96 979.34 333.9 979.34 333.9 1016.27 336.26 1016.27 348.57 1022.43 354.73 1034.74 354.73 1136.3 348.57 1148.61 336.26 1154.76 333.9 1154.76 333.9 1194.77 363.96 1194.77 403.97 1154.76 403.97 1019.35 363.96 979.34"/><path class="cls-1" d="M156,389.76c-8.51,10.82-33.38,34.42-42,45.14s-13.35,23.9-1.87,31.5c5.15,3.41,14,8.84,19.33,11.9C145,486,145,507.36,158.23,515.6c8.1,5,18.83,3.59,27.35,7.88,14.42,7.25,17.94,28.19,32.64,34.82,8.35,3.77,18.24,1.85,27,4.65,18.4,5.9,24.32,29.08,39,41.62,2.59,2.21,5.68,4.16,9.08,4.18,6.06,0,10.37-5.73,13.31-11,7.64-13.8,21.48-44.53,25-59.91-14.83,1.91-36.12-11.23-48.47-19.65-52.86-36.07-90.58-75.95-129-127.08"/><path class="cls-1" d="M187.17,381.11c28.05-32.37,64.55-63.9,92.6-96.27-11.36-7.11-30.85-16.61-36.75-28.63s-5.26-28.12,4.6-37.2c2.12-1.95,4.73-3.75,5.41-6.55,1.13-4.65-3.52-8.38-6.95-11.71-15.55-15.06-8-46.1,12.69-52.37-8.36-20.62.19-46.68,19.14-58.33,3.83-2.35,8.19-4.33,10.6-8.13,4.31-6.78.5-15.74,1.82-23.67,2.37-14.29,14-26.71,28.15-29.76,24.48-5.26,54.35-4,78.82-9.22,22.76-4.9,46.19-9.81,69.12-5.85,19.46,3.36,37.23,12.89,54.51,22.46,6.89,3.81,14.07,7.74,21.93,8.19,6.77.38,13.39-1.88,20.14-2.59,27-2.86,52.85,24.15,48.81,51-.66,4.39-1.95,9-.2,13.11,1.35,3.15,4.25,5.29,6.73,7.65,10.95,10.44,14.4,28,8.22,41.78-2.24,5-5.67,9.78-5.71,15.26-.05,6.71,4.92,12.23,7.84,18.27,13.4,27.7-17,57-19.4,87.65-2.13,26.58,16.87,49.66,34.69,69.49l71.24,79.23c1.91,2.12,3.94,4.61,3.65,7.44a8.35,8.35,0,0,1-3.55,5.77c-51,36-88.43,72.61-141.16,94-4,1.65-8.56,3.25-12.7,1.82-3.27-1.12-5.64-3.93-7.8-6.64a754.62,754.62,0,0,1-71.83-107c-2.64-4.77-5.83-10.05-11.15-11.25-3.38-.77-6.88.34-10.15,1.49A285.94,285.94,0,0,0,317.4,522.68c-2.55,3.88-5.42,8.15-9.91,9.31-4.8,1.24-9.64-1.49-13.8-4.18A501.28,501.28,0,0,1,172.08,417.14c-2.15-2.73-4.36-5.68-4.74-9.13-1.34-12,11.86-10.77,17.78-28.52"/><path class="cls-1" d="M544.56,538c50.52-16.43,93.93-49,136.31-81.06,17.38-13.15,35-26.57,47.8-44.24a8.53,8.53,0,0,1,3-3c2-1,4.33-.21,6.4.54,12.52,4.58,27,11.37,29,24.54,1.56,10-5,19.34-11.41,27.17C708,519.83,644.47,566.19,572,585.11a7.23,7.23,0,0,1-2.91.34,7,7,0,0,1-3.62-2.31,96.42,96.42,0,0,1-25.06-43.6"/><path class="cls-2" d="M255.49,215.77q22.36,4.68,44.61,10c11.88,2.83,48.9,9,36.21,29.26-2.94,4.71,4.49,9,7.42,4.34,8.43-13.46-.29-27.66-13.33-33.83-21.74-10.28-49.23-13.12-72.63-18-5.4-1.13-7.7,7.15-2.28,8.29Z"/><path class="cls-2" d="M284.68,270c20.9,1.4,50.33,11.32,60.27-14.63,2-5.17-6.33-7.41-8.29-2.29-7.67,20-36.45,9.37-52,8.33-5.52-.37-5.5,8.22,0,8.59Z"/><path class="cls-2" d="M256.77,208.6c-14.76,1.62-24.42,13.5-23,28.45,1.95,21.37,22.13,34,36.61,47,4.11,3.68,10.21-2.38,6.08-6.08-7.68-6.87-16.37-12.94-23.31-20.6-9.93-11-19.33-37.63,3.67-40.16,5.44-.6,5.5-9.2,0-8.59Z"/><path class="cls-2" d="M261.36,140c-12.13,4.19-24.29,15.44-28.63,27.67-6.28,17.72,7.39,30.25,17.69,42.89,3.49,4.29,9.54-1.83,6.08-6.08-8.19-10-21.15-21-15-35.29,3.82-8.9,13-17.73,22.18-20.91,5.2-1.79,3-10.1-2.28-8.28Z"/><path class="cls-2" d="M333.4,237.11c20.44,2,47.1,7.15,61-12.46,11.59-16.33,5.69-36.94-10.22-47.59-4.61-3.09-8.92,4.35-4.34,7.42C397.31,196.17,395,222.6,374.14,229c-12.78,4-27.76.75-40.74-.52-5.5-.54-5.47,8,0,8.59Z"/><path class="cls-2" d="M287.08,79c-24.19,5.9-42.32,32.24-33,56.94,4.62,12.31,14.92,16.8,26.58,20.77q29,9.84,58.43,18.3c19.21,5.57,54.75,16.72,70.11-3.75,5.08-6.77,5.92-19.19,3.24-27.05-3.3-9.64-13.25-13.89-21.68-18.13-4.93-2.47-9.29,4.94-4.34,7.43,6.83,3.43,15.55,6.56,17.89,14.45,2.85,9.54-1.26,19.37-10.15,23.09-18.7,7.82-39.58-.43-57.9-5.82-19.8-5.83-40.51-11.14-59.63-19-31.36-12.88-12.73-52.73,12.77-59,5.37-1.31,3.1-9.6-2.28-8.28Z"/><path class="cls-2" d="M325.51,25.17C306.05,24.94,287.22,37,282.1,56.36c-6.92,26.22,16.15,37.49,36.29,46.35l46.89,20.64c8.36,3.68,18.43,9.76,27.81,6.42,21.18-7.53,11.75-36.12,1.24-48-3.68-4.15-9.74,1.94-6.08,6.07,5.08,5.74,14.39,22,6.87,29.55-9,9-21.69.2-30.71-3.77q-22.14-9.75-44.28-19.49c-14.3-6.32-33.95-14.08-30.27-33.53,3.19-16.83,19.43-27,35.65-26.86,5.53.07,5.54-8.53,0-8.59Z"/><path class="cls-2" d="M326,28.8c-1.64,25,29.64,33.9,49.69,33.83s32.85-18.14,22.63-36.4c-2.7-4.83-10.12-.5-7.42,4.33,4.58,8.18,2.23,19.28-7.72,22.7-5.26,1.81-14.74.54-19.94-.46-12.47-2.39-29.68-8.18-28.64-24,.36-5.52-8.23-5.49-8.6,0Z"/><path class="cls-2" d="M321.79,32.8c6.49,44.34,57.13,59.35,95.7,55,25-2.85,48.48-12,71.71-21.2,26.5-10.44,57.65-28.46,86.73-19.91,5.32,1.56,7.59-6.73,2.28-8.29-21.46-6.31-41.63.42-61.75,8.24C494.75,55,473.3,64.45,451.07,71.48c-40.55,12.83-112.77,15.26-121-41-.8-5.45-9.08-3.13-8.29,2.29Z"/><path class="cls-2" d="M334.82,29.81c17.92-1.09,35.87-2.21,53.64-4.89a232,232,0,0,0,30.74-6.59c8.72-2.56,17.23-6.86,26.23-8.27C466,6.83,485.08,23.75,503,31.63c11.68,5.14,28.84,15.9,41.73,13.24,5.41-1.12,3.12-9.4-2.29-8.29-7.18,1.49-19.72-6-26.27-8.68a262.76,262.76,0,0,1-29.77-14.21C473.4,6.46,460.23-1,444.82,1.31,428.47,3.77,413,11.77,396.53,14.89c-20.34,3.87-41.08,5.07-61.71,6.32-5.5.34-5.53,8.93,0,8.6Z"/><path class="cls-2" d="M574.36,45.7c18.86,5,41.3,17.94,32.68,41.25-6.72,18.16-28.19,27.19-45,33.46-5.14,1.92-2.91,10.23,2.28,8.29,21.88-8.17,49.91-21.11,53.13-47.42,3-24.72-20.26-38.37-40.82-43.87-5.35-1.43-7.63,6.86-2.28,8.29Z"/><path class="cls-2" d="M604.15,106.94c12.71,1.47,23,10.12,23.83,23.5.53,8.71-3.94,15.74-8.22,22.83-3.87,6.39-7.93,12.68-11.89,19-1.37,2.19-8.36,16.83-10.11,17.24l4.85,2-2.81,4.92c5.43-.63,5.49-9.23,0-8.59-2.47.29-3.72.85-5.13,3a4.18,4.18,0,0,0,0,4.34l.52.69a4.51,4.51,0,0,0,4.85,2c7.44-1.74,14.6-20.15,18.22-25.95,6.89-11,16.53-22.61,18.08-36,2.37-20.34-13-35.36-32.19-37.57-5.48-.63-5.44,8,0,8.59Z"/><path class="cls-2" d="M617.49,171.42c31.78,25-1.85,65.84-13.63,92.3-2.23,5,5.17,9.38,7.42,4.34,13.3-29.88,48.15-74.47,12.28-102.72-4.29-3.39-10.42,2.65-6.07,6.08Z"/><path class="cls-2" d="M384.07,450.22c52.1-31,112.39-42.9,166.2-70.17,23-11.64,46.25-26,58-49.9a84.94,84.94,0,0,0,2.63-68.49c-2-5.1-10.3-2.88-8.29,2.28,10.1,25.87,6.61,55.8-11.76,77.26-17.39,20.3-44.9,32.38-69,42.54-47.35,19.9-97.58,32.62-142,59.06-4.75,2.83-.43,10.26,4.33,7.42Z"/><path class="cls-2" d="M596.61,286.28a227,227,0,0,0,24.13-36.48c2.58-4.89-4.83-9.23-7.42-4.34a215.27,215.27,0,0,1-22.79,34.74c-3.44,4.27,2.61,10.38,6.08,6.08Z"/><path class="cls-2" d="M168.61,409.19q60.79-68.07,120.48-137.13c3.6-4.17-2.45-10.27-6.07-6.08Q223.33,335,162.53,403.11c-3.68,4.12,2.38,10.22,6.08,6.08Z"/><path class="cls-2" d="M312.36,535.32A486.66,486.66,0,0,1,396,442.89c4.2-3.6-1.9-9.66-6.08-6.08a496,496,0,0,0-85,94.17c-3.17,4.56,4.28,8.86,7.42,4.34Z"/><path class="cls-2" d="M469.32,411.66c27,42.24,55.67,83.31,84.54,124.25,3.16,4.49,10.62.2,7.42-4.33-28.87-41-57.57-82-84.54-124.25-3-4.65-10.41-.35-7.42,4.33Z"/><path class="cls-2" d="M607.74,295.78c10.85,24.16,27.9,44.07,45.78,63.31,21.82,23.48,43.81,46.82,65.72,70.22,3.78,4.05,9.85-2,6.07-6.08q-31.24-33.39-62.51-66.78c-18.51-19.82-36.42-40-47.64-65-2.26-5-9.67-.67-7.42,4.34Z"/><path class="cls-2" d="M302.72,219.72c-13.3,4.41-19.4,19-12.79,31.49C297.19,265,317.88,269,332,268.42c5.51-.22,5.54-8.82,0-8.6-8.64.35-20.68-1.56-28.28-6.17-10-6.07-11.17-21.53,1.24-25.64,5.23-1.73,3-10-2.28-8.29Z"/><path class="cls-2" d="M386.83,183c-13.47-2.23-26.26-9.2-40.19-6.41-11.65,2.33-20.16,10.72-20,23.09.29,25.35,36.36,39.27,57.5,34.1,5.37-1.32,3.09-9.61-2.29-8.29-15.46,3.79-46.42-6.69-46.62-25.81-.26-26.14,36.13-10.58,49.33-8.4,5.41.9,7.74-7.38,2.29-8.28Z"/><path class="cls-2" d="M351.22,105c-4.18-19.89,38.72-10.62,45.13.45,2.76,4.79,10.19.47,7.42-4.33-11.29-19.53-67.72-26.58-60.84,6.17,1.14,5.4,9.43,3.12,8.29-2.29Z"/><path class="cls-2" d="M344.09,143c-2.74,15.25,8.24,26.14,22.12,30.26,8.67,2.58,18.56,3.85,27.54,4.58,3.69.3,9.32,1,12.16-2,3.82-4-2.25-10.09-6.08-6.08-2,2.14-19.55-2.41-22.72-2.95-11-1.87-27.37-6.83-24.73-21.54,1-5.41-7.31-7.73-8.29-2.29Z"/><path class="cls-2" d="M352.86,144.57c4.64-13.11,23.94-6.86,33.43-3.74,12.24,4,20.1,12.62,15.3,25.77-1.9,5.2,6.4,7.45,8.29,2.29,6.52-17.87-4.51-31-21.31-36.35-15.19-4.83-37.28-9.25-44,9.75-1.85,5.22,6.45,7.47,8.28,2.28Z"/><path class="cls-2" d="M531.53,147a26.89,26.89,0,0,0,11-4.95c1.84-1.4,2.81-3.7,1.54-5.88-1.06-1.81-4-3-5.88-1.54a21.1,21.1,0,0,1-8.93,4.08,4.3,4.3,0,0,0,2.29,8.29Z"/><path class="cls-2" d="M580.66,217.36l4.3-4.29a4.3,4.3,0,1,0-6.08-6.08l-4.3,4.3a4.3,4.3,0,0,0,6.08,6.07Z"/><path class="cls-2" d="M542.86,543.66c40.65-11.66,78.14-31.4,112.45-56,16.07-11.51,31.47-23.94,46.33-37,12.83-11.25,30.91-23.45,33.69-41.51.83-5.41-7.45-7.74-8.29-2.28-2.7,17.51-24.28,31.58-37,42.47a549.94,549.94,0,0,1-47,36.42c-31.52,21.63-65.64,39-102.46,49.55-5.31,1.52-3.05,9.82,2.28,8.28Z"/><path class="cls-2" d="M535.38,538.05c1.13,9.8,7.06,19.15,12,27.4,5.38,8.91,11.17,18.35,18.57,25.76,3.91,3.92,10-2.16,6.08-6.07-6.34-6.35-11.28-14.37-16-22-4.49-7.26-11.13-16.41-12.13-25.13-.63-5.43-9.23-5.49-8.6,0Z"/><path class="cls-2" d="M714.89,412.63l15.2-2.38c2.31-.36,3.55-3.22,3-5.28-.65-2.46-3-3.36-5.29-3l-15.2,2.38c-2.32.36-3.55,3.22-3,5.28.65,2.46,3,3.36,5.29,3Z"/><path class="cls-2" d="M540.07,516.81a29,29,0,0,0-4.48,17.41c.36,5.49,8.95,5.53,8.59,0a21.08,21.08,0,0,1,3.31-13.07c3-4.69-4.47-9-7.42-4.34Z"/><path class="cls-2" d="M573.62,590.74c44.46-7.48,82.18-32.21,116.67-60.07,32-25.9,72.37-54.42,82.79-96.57,1.33-5.37-7-7.66-8.28-2.28-9.95,40.22-50,68-80.59,92.77-33.37,26.95-69.87,50.63-112.87,57.86-5.45.92-3.14,9.2,2.28,8.29Z"/><path class="cls-2" d="M731.18,411.84A59.56,59.56,0,0,1,751.35,420c4.54,2.94,13,8.94,11.2,15.22-1.51,5.33,6.78,7.61,8.29,2.29,5.25-18.57-23.35-30.94-37.38-33.94-5.39-1.15-7.7,7.13-2.28,8.29Z"/><path class="cls-2" d="M704,438.27c-11.58,13.24-11.89,36,3.6,46.66,13.39,9.18,35.09,5.82,42.72-9.18,2.5-4.92-4.91-9.27-7.42-4.33-5.22,10.27-19.85,12.78-29.43,7.07-11.88-7.08-11.81-24.52-3.39-34.14,3.63-4.15-2.43-10.25-6.08-6.08Z"/><path class="cls-2" d="M727,463.82l1.91-3.82a4.41,4.41,0,0,0-1.54-5.88,4.34,4.34,0,0,0-5.88,1.54l-1.91,3.82a4.4,4.4,0,0,0,1.54,5.88,4.35,4.35,0,0,0,5.88-1.54Z"/><path class="cls-2" d="M150.67,393C172,428.41,200,458.91,231.75,485.21c14.89,12.33,30.46,23.8,46.48,34.62,15.21,10.27,32.91,25.91,52.36,24.06,5.46-.52,5.52-9.11,0-8.59-18.45,1.75-39.34-16.86-53.9-26.91A538.44,538.44,0,0,1,230.61,473c-28.28-24.4-53.19-52.29-72.52-84.33-2.85-4.73-10.29-.42-7.42,4.34Z"/><path class="cls-2" d="M322,525l6.26,14.06c1,2.13,4,2.6,5.88,1.54,2.2-1.25,2.48-3.77,1.54-5.88l-6.26-14.06c-.95-2.14-4-2.6-5.88-1.54-2.19,1.25-2.48,3.77-1.54,5.88Z"/><path class="cls-2" d="M175.89,383.36a29.17,29.17,0,0,0-18,.21c-5.21,1.77-3,10.07,2.28,8.29a21.06,21.06,0,0,1,13.45-.21c5.29,1.64,7.56-6.66,2.28-8.29Z"/><path class="cls-2" d="M309.88,530.07a40.21,40.21,0,0,0,13,5.48c1.39.3,2.94.51,4.14-.25,2.2-1.4,1.57-4.75.56-7.15a83.13,83.13,0,0,0-4.26-8.75,2.6,2.6,0,0,0-1.09-1.22c-.87-.38-1.83.25-2.56.86A118.53,118.53,0,0,0,309,529"/><path class="cls-2" d="M155.33,387.79a32.86,32.86,0,0,0,6.74,13.35,2.51,2.51,0,0,0,1.7,1.11,2.57,2.57,0,0,0,1.7-.92l10.28-9.61c1.18-1.1,2.46-2.45,2.31-4.06a3.64,3.64,0,0,0-2.82-2.91,10.51,10.51,0,0,0-4.29,0l-14.22,2.05"/><path class="cls-2" d="M545.67,520.06a38.57,38.57,0,0,0-4,9c-1,3.25-.89,7.82,2.35,8.84,2,.63,4.14-.63,5.9-1.83l4.22-2.88a3.23,3.23,0,0,0,1.46-1.6c.34-1.17-.66-2.25-1.58-3L546.53,522"/><path class="cls-2" d="M708.21,407.35q9.19-2,18.49-3.26a3.82,3.82,0,0,1,2.3.15c1.28.66,1.41,2.42,1.27,3.86a32.71,32.71,0,0,1-3.33,11.4,4.77,4.77,0,0,1-1.69,2.11c-1.89,1.1-4.17-.51-5.76-2L709.31,410c-.79-.75-1.37-2.39-.3-2.59"/><path class="cls-2" d="M285.55,121.23a233.82,233.82,0,0,0,22.18,21.55c1.44,1.23,3.53-.85,2.09-2.08a235.16,235.16,0,0,1-22.19-21.55c-1.27-1.42-3.35.67-2.08,2.08Z"/><path class="cls-2" d="M286.62,120.17l31.87,1.53c1.89.09,1.89-2.86,0-3l-31.87-1.53c-1.89-.09-1.89,2.86,0,3Z"/><path class="cls-2" d="M300.66,132.62l5.9-11.81c.84-1.69-1.7-3.19-2.55-1.49l-5.89,11.81c-.85,1.7,1.7,3.19,2.54,1.49Z"/><path class="cls-2" d="M302.72,146.69a20.59,20.59,0,1,1,14.57-6h0A20.56,20.56,0,0,1,302.72,146.69Zm0-39.22a18.63,18.63,0,1,0,13.18,31.81,18.63,18.63,0,0,0-13.18-31.81Z"/><path class="cls-2" d="M271.48,186.06c3.79,0,3.8-5.89,0-5.89s-3.8,5.89,0,5.89Z"/><path class="cls-2" d="M285.87,201.65c3.79,0,3.8-5.9,0-5.9s-3.8,5.9,0,5.9Z"/><path class="cls-2" d="M290.66,184.86c3.8,0,3.8-5.89,0-5.89s-3.8,5.89,0,5.89Z"/><path class="cls-2" d="M268.58,262.52a33.5,33.5,0,0,0,21.08,5.77c3.77-.24,3.8-6.13,0-5.9a28.1,28.1,0,0,1-18.11-5c-3.14-2.14-6.09,3-3,5.1Z"/><path class="cls-1" d="M484.75,12.89c12.53,6.69,9.71,24.12,9,36-.23,3.79,5.67,3.77,5.9,0,.87-14.26,3-33.13-11.91-41.07-3.34-1.78-6.33,3.3-3,5.09Z"/><path class="cls-2" d="M480,9.73a42.5,42.5,0,0,1,6.23,47.82c-.85,1.69,1.69,3.18,2.55,1.49a45.61,45.61,0,0,0-6.69-51.39c-1.26-1.42-3.34.67-2.09,2.08Z"/><path class="cls-2" d="M488.33,8.34c15.48,10.6,11.92,30.39,8.32,46.05-.42,1.85,2.42,2.64,2.85.79,3.94-17.19,7-37.95-9.68-49.38-1.57-1.08-3.05,1.48-1.49,2.54Z"/><path class="cls-2" d="M150.86,387.61c-9.71,13.14-21.64,24.68-32.7,36.67-7.54,8.17-15.82,17.12-15.53,29.09.31,13,9.11,15.52,19.09,20.39,19.06,9.3,17.44,27.05,30.13,41.24a30.2,30.2,0,0,0,13.3,8.58c3.87,1.34,8.11,1.33,12,2.49,13.6,4,15.72,8.14,22.32,18.29,7,10.78,12.25,17.19,25.29,20.13,11.7,2.64,20.33,2.84,29.2,11.93,5.12,5.25,9.18,11.42,13.88,17,7.22,8.62,14.28,15.39,25.75,16.73,3.76.44,3.73-5.46,0-5.89-23.53-2.76-29.34-35.64-51.32-42.94-8.13-2.7-18.49-1.11-25.89-5.58-8.41-5.08-11.5-15.84-17.32-23.15-8.72-11-17-9.54-29.37-14-18.78-6.83-19.23-22.1-28.57-36.62-6.6-10.27-16.86-12.92-25.22-21.25-8.85-8.82-7.77-13.41-1.05-23.7,1.69-2.6,4-4.77,6.08-7.06,4.26-4.75,8.71-9.33,13-14,7.59-8.21,15.33-16.36,22-25.36,2.26-3.06-2.86-6-5.09-3Z"/><path class="cls-2" d="M297.64,609.32c17.08-18.58,29.44-45,37.44-68.77,1.21-3.61-4.48-5.15-5.69-1.57-7.6,22.61-19.64,48.46-35.92,66.17-2.57,2.79,1.59,7,4.17,4.17Z"/><path class="cls-2" d="M170.49,401.74A481.67,481.67,0,0,0,308.9,525c3.28,1.94,6.25-3.16,3-5.09A474.11,474.11,0,0,1,175.59,398.76c-2.27-3-7.4,0-5.1,3Z"/></svg>